<svg width="108" height="162" viewBox="0 0 108 162" fill="none" xmlns="http://www.w3.org/2000/svg">
<g filter="url(#filter0_d_387_16)">
<rect x="20.2661" y="26.9857" width="69.5087" height="69.5087" rx="20" fill="#FFF7ED"/>
</g>
<path fill-rule="evenodd" clip-rule="evenodd" d="M55.0204 42.6251C44.4638 42.6251 35.9055 51.1834 35.9055 61.74C35.9055 72.2967 44.4638 80.8549 55.0204 80.8549C65.5771 80.8549 74.1353 72.2967 74.1353 61.74C74.1353 51.1834 65.5771 42.6251 55.0204 42.6251ZM63.3059 58.5079C63.4584 58.3335 63.5746 58.1303 63.6475 57.9104C63.7204 57.6904 63.7485 57.4581 63.7303 57.2271C63.7121 56.9961 63.6479 56.7711 63.5415 56.5653C63.435 56.3595 63.2885 56.1771 63.1104 56.0287C62.9324 55.8804 62.7266 55.7692 62.5049 55.7016C62.2833 55.634 62.0504 55.6114 61.8199 55.6351C61.5894 55.6589 61.366 55.7285 61.1628 55.8398C60.9596 55.9512 60.7807 56.1021 60.6367 56.2836L53.1645 65.2485L49.2981 61.3803C48.9704 61.0638 48.5314 60.8886 48.0758 60.8926C47.6202 60.8965 47.1843 61.0793 46.8621 61.4015C46.54 61.7237 46.3572 62.1595 46.3532 62.6151C46.3493 63.0708 46.5244 63.5097 46.841 63.8374L52.0541 69.0506C52.2249 69.2212 52.4293 69.3544 52.6544 69.4417C52.8794 69.529 53.1202 69.5684 53.3614 69.5574C53.6025 69.5465 53.8387 69.4854 54.055 69.3781C54.2712 69.2708 54.4627 69.1196 54.6173 68.9342L63.3059 58.5079Z" fill="#FED06E"/>
<g filter="url(#filter1_d_387_16)">
<path fill-rule="evenodd" clip-rule="evenodd" d="M58.2639 2.57865C54.606 1.30662 50.3809 2.13165 47.4588 5.05375L13.0538 39.4588C8.98204 43.5306 8.98204 50.1321 13.0538 54.2039C17.1255 58.2756 23.7271 58.2756 27.7988 54.2039L54.9445 27.0581L82.2011 54.3147C86.2729 58.3864 92.8744 58.3864 96.9462 54.3147C101.018 50.243 101.018 43.6414 96.9462 39.5697L62.5411 5.16461C61.3021 3.9256 59.8288 3.06361 58.2639 2.57865Z" fill="#FED06E"/>
</g>
<g filter="url(#filter2_d_387_16)">
<path d="M10.804 136.164C10.132 136.164 9.604 136.092 9.22 135.948C8.836 135.804 8.536 135.612 8.32 135.372C8.128 135.108 8.008 134.82 7.96 134.508C7.912 134.172 7.888 133.824 7.888 133.464V124.932C7.888 123.732 8.176 122.916 8.752 122.484C9.352 122.028 10.036 121.8 10.804 121.8H31.216C31.816 121.8 32.296 121.872 32.656 122.016C33.016 122.16 33.292 122.352 33.484 122.592C33.676 122.832 33.796 123.108 33.844 123.42C33.916 123.708 33.952 124.008 33.952 124.32C33.952 124.584 33.916 124.86 33.844 125.148C33.796 125.436 33.676 125.7 33.484 125.94C33.292 126.18 33.016 126.384 32.656 126.552C32.296 126.72 31.816 126.804 31.216 126.804H13.72V131.16H31.576C32.176 131.16 32.656 131.244 33.016 131.412C33.376 131.58 33.652 131.784 33.844 132.024C34.036 132.264 34.156 132.54 34.204 132.852C34.276 133.14 34.312 133.404 34.312 133.644C34.312 133.956 34.276 134.268 34.204 134.58C34.156 134.868 34.036 135.132 33.844 135.372C33.652 135.612 33.376 135.804 33.016 135.948C32.656 136.092 32.176 136.164 31.576 136.164H10.804ZM5.296 142.104C5.296 141.744 5.332 141.42 5.404 141.132C5.5 140.82 5.668 140.556 5.908 140.34C6.148 140.1 6.484 139.92 6.916 139.8C7.348 139.656 7.9 139.584 8.572 139.584H33.592C34.264 139.584 34.816 139.656 35.248 139.8C35.68 139.92 36.016 140.1 36.256 140.34C36.496 140.556 36.652 140.82 36.724 141.132C36.82 141.42 36.868 141.744 36.868 142.104C36.868 142.392 36.82 142.692 36.724 143.004C36.652 143.292 36.496 143.556 36.256 143.796C36.016 144.012 35.68 144.192 35.248 144.336C34.816 144.48 34.264 144.552 33.592 144.552H24.016V149.16C24.016 149.784 23.932 150.3 23.764 150.708C23.596 151.116 23.38 151.44 23.116 151.68C22.852 151.92 22.54 152.088 22.18 152.184C21.844 152.28 21.484 152.328 21.1 152.328C20.716 152.328 20.344 152.28 19.984 152.184C19.648 152.088 19.336 151.92 19.048 151.68C18.784 151.44 18.568 151.116 18.4 150.708C18.256 150.3 18.184 149.784 18.184 149.16V144.552H8.572C7.9 144.552 7.348 144.48 6.916 144.336C6.484 144.192 6.148 144.012 5.908 143.796C5.668 143.556 5.5 143.292 5.404 143.004C5.332 142.692 5.296 142.392 5.296 142.104ZM47.243 146.46H52.859C53.531 146.46 54.083 146.532 54.515 146.676C54.947 146.82 55.283 147 55.523 147.216C55.763 147.456 55.919 147.72 55.991 148.008C56.087 148.32 56.135 148.62 56.135 148.908C56.135 149.268 56.087 149.592 55.991 149.88C55.919 150.192 55.763 150.456 55.523 150.672C55.283 150.912 54.947 151.092 54.515 151.212C54.083 151.356 53.531 151.428 52.859 151.428H44.327C43.655 151.428 43.127 151.356 42.743 151.212C42.359 151.092 42.059 150.912 41.843 150.672C41.651 150.456 41.531 150.192 41.483 149.88C41.435 149.592 41.411 149.268 41.411 148.908V124.572C41.411 124.212 41.435 123.876 41.483 123.564C41.531 123.228 41.651 122.928 41.843 122.664C42.059 122.4 42.359 122.196 42.743 122.052C43.127 121.884 43.655 121.8 44.327 121.8H52.139C52.811 121.8 53.363 121.872 53.795 122.016C54.227 122.136 54.563 122.316 54.803 122.556C55.043 122.772 55.199 123.036 55.271 123.348C55.367 123.636 55.415 123.96 55.415 124.32C55.415 124.608 55.367 124.908 55.271 125.22C55.199 125.508 55.043 125.772 54.803 126.012C54.563 126.228 54.227 126.408 53.795 126.552C53.363 126.696 52.811 126.768 52.139 126.768H47.243V146.46ZM63.155 138.612H57.323C56.651 138.612 56.111 138.552 55.703 138.432C55.295 138.288 54.971 138.096 54.731 137.856C54.515 137.616 54.371 137.352 54.299 137.064C54.227 136.752 54.191 136.416 54.191 136.056C54.191 135.768 54.227 135.48 54.299 135.192C54.371 134.88 54.515 134.604 54.731 134.364C54.971 134.124 55.295 133.932 55.703 133.788C56.111 133.644 56.651 133.572 57.323 133.572H63.155V124.572C63.155 123.372 63.443 122.556 64.019 122.124C64.619 121.668 65.303 121.44 66.071 121.44C66.455 121.44 66.815 121.488 67.151 121.584C67.511 121.68 67.823 121.848 68.087 122.088C68.351 122.328 68.567 122.652 68.735 123.06C68.903 123.468 68.987 123.972 68.987 124.572V149.16C68.987 149.784 68.903 150.3 68.735 150.708C68.567 151.116 68.351 151.44 68.087 151.68C67.823 151.92 67.511 152.088 67.151 152.184C66.815 152.28 66.455 152.328 66.071 152.328C65.687 152.328 65.315 152.28 64.955 152.184C64.619 152.088 64.307 151.92 64.019 151.68C63.755 151.44 63.539 151.116 63.371 150.708C63.227 150.3 63.155 149.784 63.155 149.16V138.612ZM78.4621 152.76C77.7901 152.76 77.2621 152.688 76.8781 152.544C76.4941 152.424 76.1941 152.244 75.9781 152.004C75.7861 151.788 75.6661 151.524 75.6181 151.212C75.5701 150.924 75.5461 150.6 75.5461 150.24V142.14C75.5461 140.94 75.8101 140.124 76.3381 139.692C76.8661 139.236 77.5141 139.008 78.2821 139.008C78.9781 139.008 79.6141 139.2 80.1901 139.584C80.7661 139.968 81.0901 140.688 81.1621 141.744H97.1821C97.2541 140.712 97.5781 140.004 98.1541 139.62C98.7301 139.212 99.3781 139.008 100.098 139.008C100.482 139.008 100.83 139.056 101.142 139.152C101.478 139.248 101.766 139.416 102.006 139.656C102.27 139.896 102.474 140.22 102.618 140.628C102.762 141.036 102.834 141.54 102.834 142.14V150.24C102.834 150.6 102.81 150.924 102.762 151.212C102.714 151.524 102.582 151.788 102.366 152.004C102.174 152.244 101.886 152.424 101.502 152.544C101.118 152.688 100.59 152.76 99.9181 152.76H78.4621ZM74.1061 124.536C74.1061 124.176 74.1421 123.852 74.2141 123.564C74.3101 123.252 74.4781 122.988 74.7181 122.772C74.9581 122.532 75.2941 122.352 75.7261 122.232C76.1581 122.088 76.7101 122.016 77.3821 122.016H88.2541C88.9261 122.016 89.4781 122.088 89.9101 122.232C90.3421 122.352 90.6781 122.532 90.9181 122.772C91.1581 122.988 91.3141 123.252 91.3861 123.564C91.4821 123.852 91.5301 124.176 91.5301 124.536C91.5301 124.824 91.4821 125.124 91.3861 125.436C91.3141 125.724 91.1581 125.988 90.9181 126.228C90.6781 126.444 90.3421 126.624 89.9101 126.768C89.4781 126.912 88.9261 126.984 88.2541 126.984H86.0581C86.1541 127.68 86.3341 128.28 86.5981 128.784C86.8621 129.288 87.1741 129.744 87.5341 130.152C87.9181 130.56 88.3621 130.956 88.8661 131.34C89.3701 131.7 89.9341 132.084 90.5581 132.492C91.3261 133.02 91.8301 133.608 92.0701 134.256C92.3341 134.904 92.2261 135.612 91.7461 136.38C91.4821 136.788 91.1581 137.1 90.7741 137.316C90.4141 137.508 90.0181 137.616 89.5861 137.64C89.3221 137.64 89.0461 137.616 88.7581 137.568C88.4701 137.496 88.1941 137.364 87.9301 137.172C87.0901 136.548 86.2621 135.876 85.4461 135.156C84.6541 134.436 83.9101 133.656 83.2141 132.816C82.5901 133.68 81.8701 134.484 81.0541 135.228C80.2621 135.972 79.4221 136.596 78.5341 137.1C78.2221 137.292 77.8741 137.448 77.4901 137.568C77.1301 137.688 76.7581 137.76 76.3741 137.784C75.9661 137.808 75.5461 137.736 75.1141 137.568C74.6821 137.4 74.3221 137.076 74.0341 136.596C73.5541 135.828 73.4341 135.12 73.6741 134.472C73.9141 133.824 74.4301 133.236 75.2221 132.708C75.9181 132.252 76.5301 131.832 77.0581 131.448C77.6101 131.064 78.0781 130.656 78.4621 130.224C78.8461 129.792 79.1581 129.324 79.3981 128.82C79.6381 128.292 79.8061 127.68 79.9021 126.984H77.3821C76.7101 126.984 76.1581 126.912 75.7261 126.768C75.2941 126.624 74.9581 126.444 74.7181 126.228C74.4781 125.988 74.3101 125.724 74.2141 125.436C74.1421 125.124 74.1061 124.824 74.1061 124.536ZM96.9661 124.572C96.9661 123.372 97.2541 122.556 97.8301 122.124C98.4301 121.668 99.1141 121.44 99.8821 121.44C100.266 121.44 100.626 121.488 100.962 121.584C101.322 121.68 101.634 121.848 101.898 122.088C102.162 122.328 102.378 122.652 102.546 123.06C102.714 123.468 102.798 123.972 102.798 124.572V134.868C102.798 135.492 102.714 136.008 102.546 136.416C102.378 136.824 102.162 137.148 101.898 137.388C101.634 137.628 101.322 137.796 100.962 137.892C100.626 137.988 100.266 138.036 99.8821 138.036C99.4981 138.036 99.1261 137.988 98.7661 137.892C98.4301 137.796 98.1181 137.628 97.8301 137.388C97.5661 137.148 97.3501 136.824 97.1821 136.416C97.0381 136.008 96.9661 135.492 96.9661 134.868V124.572ZM97.1821 146.352H81.1981V148.152H97.1821V146.352Z" fill="#1C2938"/>
</g>
<defs>
<filter id="filter0_d_387_16" x="10.2661" y="22.9857" width="89.5088" height="89.5088" filterUnits="userSpaceOnUse" color-interpolation-filters="sRGB">
<feFlood flood-opacity="0" result="BackgroundImageFix"/>
<feColorMatrix in="SourceAlpha" type="matrix" values="0 0 0 0 0 0 0 0 0 0 0 0 0 0 0 0 0 0 127 0" result="hardAlpha"/>
<feOffset dy="6"/>
<feGaussianBlur stdDeviation="5"/>
<feComposite in2="hardAlpha" operator="out"/>
<feColorMatrix type="matrix" values="0 0 0 0 0 0 0 0 0 0 0 0 0 0 0 0 0 0 0.1 0"/>
<feBlend mode="normal" in2="BackgroundImageFix" result="effect1_dropShadow_387_16"/>
<feBlend mode="normal" in="SourceGraphic" in2="effect1_dropShadow_387_16" result="shape"/>
</filter>
<filter id="filter1_d_387_16" x="5" y="0" width="100" height="65.3685" filterUnits="userSpaceOnUse" color-interpolation-filters="sRGB">
<feFlood flood-opacity="0" result="BackgroundImageFix"/>
<feColorMatrix in="SourceAlpha" type="matrix" values="0 0 0 0 0 0 0 0 0 0 0 0 0 0 0 0 0 0 127 0" result="hardAlpha"/>
<feOffset dy="3"/>
<feGaussianBlur stdDeviation="2.5"/>
<feComposite in2="hardAlpha" operator="out"/>
<feColorMatrix type="matrix" values="0 0 0 0 0 0 0 0 0 0 0 0 0 0 0 0 0 0 0.2 0"/>
<feBlend mode="normal" in2="BackgroundImageFix" result="effect1_dropShadow_387_16"/>
<feBlend mode="normal" in="SourceGraphic" in2="effect1_dropShadow_387_16" result="shape"/>
</filter>
<filter id="filter2_d_387_16" x="0.296021" y="120.44" width="107.538" height="41.3201" filterUnits="userSpaceOnUse" color-interpolation-filters="sRGB">
<feFlood flood-opacity="0" result="BackgroundImageFix"/>
<feColorMatrix in="SourceAlpha" type="matrix" values="0 0 0 0 0 0 0 0 0 0 0 0 0 0 0 0 0 0 127 0" result="hardAlpha"/>
<feOffset dy="4"/>
<feGaussianBlur stdDeviation="2.5"/>
<feComposite in2="hardAlpha" operator="out"/>
<feColorMatrix type="matrix" values="0 0 0 0 0 0 0 0 0 0 0 0 0 0 0 0 0 0 0.15 0"/>
<feBlend mode="normal" in2="BackgroundImageFix" result="effect1_dropShadow_387_16"/>
<feBlend mode="normal" in="SourceGraphic" in2="effect1_dropShadow_387_16" result="shape"/>
</filter>
</defs>
</svg>
