<svg width="390" height="844" viewBox="0 0 390 844" fill="none" xmlns="http://www.w3.org/2000/svg">
<rect width="390" height="844" fill="#FFFEFE"/>
<g filter="url(#filter0_d_256_18)">
<rect x="144.77" y="321.946" width="100" height="100" rx="20" fill="#FFF7ED"/>
</g>
<path fill-rule="evenodd" clip-rule="evenodd" d="M194.77 344.446C179.582 344.446 167.27 356.759 167.27 371.946C167.27 387.134 179.582 399.446 194.77 399.446C209.957 399.446 222.27 387.134 222.27 371.946C222.27 356.759 209.957 344.446 194.77 344.446ZM206.69 367.296C206.909 367.045 207.076 366.753 207.181 366.437C207.286 366.12 207.326 365.786 207.3 365.454C207.274 365.121 207.182 364.798 207.028 364.501C206.875 364.205 206.664 363.943 206.408 363.73C206.152 363.516 205.856 363.356 205.537 363.259C205.218 363.162 204.883 363.129 204.552 363.163C204.22 363.197 203.899 363.298 203.606 363.458C203.314 363.618 203.057 363.835 202.85 364.096L192.1 376.994L186.537 371.429C186.066 370.973 185.434 370.721 184.779 370.727C184.123 370.733 183.496 370.996 183.032 371.459C182.569 371.923 182.306 372.55 182.3 373.205C182.295 373.861 182.547 374.492 183.002 374.964L190.502 382.464C190.748 382.709 191.042 382.901 191.366 383.026C191.689 383.152 192.036 383.209 192.383 383.193C192.73 383.177 193.069 383.089 193.381 382.935C193.692 382.78 193.967 382.563 194.19 382.296L206.69 367.296Z" fill="#FED06E"/>
<g filter="url(#filter1_d_256_18)">
<path fill-rule="evenodd" clip-rule="evenodd" d="M199.436 286.833C194.173 285.003 188.095 286.189 183.891 290.393L134.393 339.891C128.536 345.749 128.536 355.246 134.393 361.104C140.251 366.962 149.749 366.962 155.607 361.104L194.66 322.05L233.874 361.264C239.731 367.121 249.229 367.121 255.087 361.264C260.945 355.406 260.945 345.908 255.087 340.05L205.589 290.553C203.807 288.77 201.687 287.53 199.436 286.833Z" fill="#FED06E"/>
</g>
<g filter="url(#filter2_d_256_18)">
<path d="M136.072 490.552C135.176 490.552 134.472 490.456 133.96 490.264C133.448 490.072 133.048 489.816 132.76 489.496C132.504 489.144 132.344 488.76 132.28 488.344C132.216 487.896 132.184 487.432 132.184 486.952V475.576C132.184 473.976 132.568 472.888 133.336 472.312C134.136 471.704 135.048 471.4 136.072 471.4H163.288C164.088 471.4 164.728 471.496 165.208 471.688C165.688 471.88 166.056 472.136 166.312 472.456C166.568 472.776 166.728 473.144 166.792 473.56C166.888 473.944 166.936 474.344 166.936 474.76C166.936 475.112 166.888 475.48 166.792 475.864C166.728 476.248 166.568 476.6 166.312 476.92C166.056 477.24 165.688 477.512 165.208 477.736C164.728 477.96 164.088 478.072 163.288 478.072H139.96V483.88H163.768C164.568 483.88 165.208 483.992 165.688 484.216C166.168 484.44 166.536 484.712 166.792 485.032C167.048 485.352 167.208 485.72 167.272 486.136C167.368 486.52 167.416 486.872 167.416 487.192C167.416 487.608 167.368 488.024 167.272 488.44C167.208 488.824 167.048 489.176 166.792 489.496C166.536 489.816 166.168 490.072 165.688 490.264C165.208 490.456 164.568 490.552 163.768 490.552H136.072ZM128.728 498.472C128.728 497.992 128.776 497.56 128.872 497.176C129 496.76 129.224 496.408 129.544 496.12C129.864 495.8 130.312 495.56 130.888 495.4C131.464 495.208 132.2 495.112 133.096 495.112H166.456C167.352 495.112 168.088 495.208 168.664 495.4C169.24 495.56 169.688 495.8 170.008 496.12C170.328 496.408 170.536 496.76 170.632 497.176C170.76 497.56 170.824 497.992 170.824 498.472C170.824 498.856 170.76 499.256 170.632 499.672C170.536 500.056 170.328 500.408 170.008 500.728C169.688 501.016 169.24 501.256 168.664 501.448C168.088 501.64 167.352 501.736 166.456 501.736H153.688V507.88C153.688 508.712 153.576 509.4 153.352 509.944C153.128 510.488 152.84 510.92 152.488 511.24C152.136 511.56 151.72 511.784 151.24 511.912C150.792 512.04 150.312 512.104 149.8 512.104C149.288 512.104 148.792 512.04 148.312 511.912C147.864 511.784 147.448 511.56 147.064 511.24C146.712 510.92 146.424 510.488 146.2 509.944C146.008 509.4 145.912 508.712 145.912 507.88V501.736H133.096C132.2 501.736 131.464 501.64 130.888 501.448C130.312 501.256 129.864 501.016 129.544 500.728C129.224 500.408 129 500.056 128.872 499.672C128.776 499.256 128.728 498.856 128.728 498.472ZM184.657 504.28H192.145C193.041 504.28 193.777 504.376 194.353 504.568C194.929 504.76 195.377 505 195.697 505.288C196.017 505.608 196.225 505.96 196.321 506.344C196.449 506.76 196.513 507.16 196.513 507.544C196.513 508.024 196.449 508.456 196.321 508.84C196.225 509.256 196.017 509.608 195.697 509.896C195.377 510.216 194.929 510.456 194.353 510.616C193.777 510.808 193.041 510.904 192.145 510.904H180.769C179.873 510.904 179.169 510.808 178.657 510.616C178.145 510.456 177.745 510.216 177.457 509.896C177.201 509.608 177.041 509.256 176.977 508.84C176.913 508.456 176.881 508.024 176.881 507.544V475.096C176.881 474.616 176.913 474.168 176.977 473.752C177.041 473.304 177.201 472.904 177.457 472.552C177.745 472.2 178.145 471.928 178.657 471.736C179.169 471.512 179.873 471.4 180.769 471.4H191.185C192.081 471.4 192.817 471.496 193.393 471.688C193.969 471.848 194.417 472.088 194.737 472.408C195.057 472.696 195.265 473.048 195.361 473.464C195.489 473.848 195.553 474.28 195.553 474.76C195.553 475.144 195.489 475.544 195.361 475.96C195.265 476.344 195.057 476.696 194.737 477.016C194.417 477.304 193.969 477.544 193.393 477.736C192.817 477.928 192.081 478.024 191.185 478.024H184.657V504.28ZM205.873 493.816H198.097C197.201 493.816 196.481 493.736 195.937 493.576C195.393 493.384 194.961 493.128 194.641 492.808C194.353 492.488 194.161 492.136 194.065 491.752C193.969 491.336 193.921 490.888 193.921 490.408C193.921 490.024 193.969 489.64 194.065 489.256C194.161 488.84 194.353 488.472 194.641 488.152C194.961 487.832 195.393 487.576 195.937 487.384C196.481 487.192 197.201 487.096 198.097 487.096H205.873V475.096C205.873 473.496 206.257 472.408 207.025 471.832C207.825 471.224 208.737 470.92 209.761 470.92C210.273 470.92 210.753 470.984 211.201 471.112C211.681 471.24 212.097 471.464 212.449 471.784C212.801 472.104 213.089 472.536 213.313 473.08C213.537 473.624 213.649 474.296 213.649 475.096V507.88C213.649 508.712 213.537 509.4 213.313 509.944C213.089 510.488 212.801 510.92 212.449 511.24C212.097 511.56 211.681 511.784 211.201 511.912C210.753 512.04 210.273 512.104 209.761 512.104C209.249 512.104 208.753 512.04 208.273 511.912C207.825 511.784 207.409 511.56 207.025 511.24C206.673 510.92 206.385 510.488 206.161 509.944C205.969 509.4 205.873 508.712 205.873 507.88V493.816ZM226.283 512.68C225.387 512.68 224.683 512.584 224.171 512.392C223.659 512.232 223.259 511.992 222.971 511.672C222.715 511.384 222.555 511.032 222.491 510.616C222.427 510.232 222.395 509.8 222.395 509.32V498.52C222.395 496.92 222.747 495.832 223.451 495.256C224.155 494.648 225.019 494.344 226.043 494.344C226.971 494.344 227.819 494.6 228.587 495.112C229.355 495.624 229.787 496.584 229.883 497.992H251.243C251.339 496.616 251.771 495.672 252.539 495.16C253.307 494.616 254.171 494.344 255.131 494.344C255.643 494.344 256.107 494.408 256.523 494.536C256.971 494.664 257.355 494.888 257.675 495.208C258.027 495.528 258.299 495.96 258.491 496.504C258.683 497.048 258.779 497.72 258.779 498.52V509.32C258.779 509.8 258.747 510.232 258.683 510.616C258.619 511.032 258.443 511.384 258.155 511.672C257.899 511.992 257.515 512.232 257.003 512.392C256.491 512.584 255.787 512.68 254.891 512.68H226.283ZM220.475 475.048C220.475 474.568 220.523 474.136 220.619 473.752C220.747 473.336 220.971 472.984 221.291 472.696C221.611 472.376 222.059 472.136 222.635 471.976C223.211 471.784 223.947 471.688 224.843 471.688H239.339C240.235 471.688 240.971 471.784 241.547 471.976C242.123 472.136 242.571 472.376 242.891 472.696C243.211 472.984 243.419 473.336 243.515 473.752C243.643 474.136 243.707 474.568 243.707 475.048C243.707 475.432 243.643 475.832 243.515 476.248C243.419 476.632 243.211 476.984 242.891 477.304C242.571 477.592 242.123 477.832 241.547 478.024C240.971 478.216 240.235 478.312 239.339 478.312H236.411C236.539 479.24 236.779 480.04 237.131 480.712C237.483 481.384 237.899 481.992 238.379 482.536C238.891 483.08 239.483 483.608 240.155 484.12C240.827 484.6 241.579 485.112 242.411 485.656C243.435 486.36 244.107 487.144 244.427 488.008C244.779 488.872 244.635 489.816 243.995 490.84C243.643 491.384 243.211 491.8 242.699 492.088C242.219 492.344 241.691 492.488 241.115 492.52C240.763 492.52 240.395 492.488 240.011 492.424C239.627 492.328 239.259 492.152 238.907 491.896C237.787 491.064 236.683 490.168 235.595 489.208C234.539 488.248 233.547 487.208 232.619 486.088C231.787 487.24 230.827 488.312 229.739 489.304C228.683 490.296 227.563 491.128 226.379 491.8C225.963 492.056 225.499 492.264 224.987 492.424C224.507 492.584 224.011 492.68 223.499 492.712C222.955 492.744 222.395 492.648 221.819 492.424C221.243 492.2 220.763 491.768 220.379 491.128C219.739 490.104 219.579 489.16 219.899 488.296C220.219 487.432 220.907 486.648 221.963 485.944C222.891 485.336 223.707 484.776 224.411 484.264C225.147 483.752 225.771 483.208 226.283 482.632C226.795 482.056 227.211 481.432 227.531 480.76C227.851 480.056 228.075 479.24 228.203 478.312H224.843C223.947 478.312 223.211 478.216 222.635 478.024C222.059 477.832 221.611 477.592 221.291 477.304C220.971 476.984 220.747 476.632 220.619 476.248C220.523 475.832 220.475 475.432 220.475 475.048ZM250.955 475.096C250.955 473.496 251.339 472.408 252.107 471.832C252.907 471.224 253.819 470.92 254.843 470.92C255.355 470.92 255.835 470.984 256.283 471.112C256.763 471.24 257.179 471.464 257.531 471.784C257.883 472.104 258.171 472.536 258.395 473.08C258.619 473.624 258.731 474.296 258.731 475.096V488.824C258.731 489.656 258.619 490.344 258.395 490.888C258.171 491.432 257.883 491.864 257.531 492.184C257.179 492.504 256.763 492.728 256.283 492.856C255.835 492.984 255.355 493.048 254.843 493.048C254.331 493.048 253.835 492.984 253.355 492.856C252.907 492.728 252.491 492.504 252.107 492.184C251.755 491.864 251.467 491.432 251.243 490.888C251.051 490.344 250.955 489.656 250.955 488.824V475.096ZM251.243 504.136H229.931V506.536H251.243V504.136Z" fill="#1C2938"/>
</g>
<defs>
<filter id="filter0_d_256_18" x="134.77" y="317.946" width="120" height="120" filterUnits="userSpaceOnUse" color-interpolation-filters="sRGB">
<feFlood flood-opacity="0" result="BackgroundImageFix"/>
<feColorMatrix in="SourceAlpha" type="matrix" values="0 0 0 0 0 0 0 0 0 0 0 0 0 0 0 0 0 0 127 0" result="hardAlpha"/>
<feOffset dy="6"/>
<feGaussianBlur stdDeviation="5"/>
<feComposite in2="hardAlpha" operator="out"/>
<feColorMatrix type="matrix" values="0 0 0 0 0 0 0 0 0 0 0 0 0 0 0 0 0 0 0.1 0"/>
<feBlend mode="normal" in2="BackgroundImageFix" result="effect1_dropShadow_256_18"/>
<feBlend mode="normal" in="SourceGraphic" in2="effect1_dropShadow_256_18" result="shape"/>
</filter>
<filter id="filter1_d_256_18" x="125" y="284" width="139.48" height="89.657" filterUnits="userSpaceOnUse" color-interpolation-filters="sRGB">
<feFlood flood-opacity="0" result="BackgroundImageFix"/>
<feColorMatrix in="SourceAlpha" type="matrix" values="0 0 0 0 0 0 0 0 0 0 0 0 0 0 0 0 0 0 127 0" result="hardAlpha"/>
<feOffset dy="3"/>
<feGaussianBlur stdDeviation="2.5"/>
<feComposite in2="hardAlpha" operator="out"/>
<feColorMatrix type="matrix" values="0 0 0 0 0 0 0 0 0 0 0 0 0 0 0 0 0 0 0.2 0"/>
<feBlend mode="normal" in2="BackgroundImageFix" result="effect1_dropShadow_256_18"/>
<feBlend mode="normal" in="SourceGraphic" in2="effect1_dropShadow_256_18" result="shape"/>
</filter>
<filter id="filter2_d_256_18" x="123.728" y="469.92" width="140.051" height="51.76" filterUnits="userSpaceOnUse" color-interpolation-filters="sRGB">
<feFlood flood-opacity="0" result="BackgroundImageFix"/>
<feColorMatrix in="SourceAlpha" type="matrix" values="0 0 0 0 0 0 0 0 0 0 0 0 0 0 0 0 0 0 127 0" result="hardAlpha"/>
<feOffset dy="4"/>
<feGaussianBlur stdDeviation="2.5"/>
<feComposite in2="hardAlpha" operator="out"/>
<feColorMatrix type="matrix" values="0 0 0 0 0 0 0 0 0 0 0 0 0 0 0 0 0 0 0.15 0"/>
<feBlend mode="normal" in2="BackgroundImageFix" result="effect1_dropShadow_256_18"/>
<feBlend mode="normal" in="SourceGraphic" in2="effect1_dropShadow_256_18" result="shape"/>
</filter>
</defs>
</svg>
