<svg width="27" height="27" viewBox="0 0 27 27" fill="none" xmlns="http://www.w3.org/2000/svg">
<circle cx="13.5" cy="13.5" r="13.5" fill="#FFFEFE"/>
<path d="M11.3618 8.2423L13.8308 10.7113C13.8377 10.7186 13.8449 10.7258 13.8522 10.7327L13.8722 10.7526L13.8741 10.7508C13.9476 10.8106 14.0402 10.8482 14.1426 10.8482C14.2559 10.8481 14.3646 10.8031 14.4447 10.7229C14.5248 10.6428 14.5698 10.5341 14.5698 10.4208C14.5698 10.2669 14.4877 10.1331 14.3655 10.058L11.9085 7.60117C11.8687 7.55528 11.8196 7.51845 11.7645 7.49316C11.7093 7.46787 11.6493 7.45472 11.5886 7.45459C11.4753 7.45459 11.3667 7.49959 11.2866 7.5797C11.2065 7.6598 11.1615 7.76845 11.1615 7.88173C11.1615 8.03398 11.2417 8.16691 11.3618 8.2423ZM14.1424 16.8032V11.545H8.49343C8.46256 11.545 8.43253 11.5527 8.40271 11.5641L6.09964 10.2346L6.09775 10.2377C6.02171 10.1974 5.93706 10.1761 5.851 10.1756C5.73414 10.1752 5.62032 10.2128 5.52667 10.2827C5.43302 10.3525 5.3646 10.451 5.33172 10.5631C5.29884 10.6752 5.30328 10.795 5.34436 10.9044C5.38545 11.0138 5.46096 11.1069 5.55952 11.1697L5.55553 11.1766L7.88905 12.524C7.79896 12.9163 7.7452 13.398 7.7452 13.9207C7.7452 15.0255 7.98313 15.9512 8.30464 16.2173L6.9892 18.496C6.88757 18.6242 6.83203 18.783 6.83149 18.9466C6.83149 19.1422 6.9092 19.3298 7.04751 19.4681C7.18582 19.6064 7.37341 19.6841 7.56901 19.6841C7.6819 19.6839 7.7932 19.6575 7.89424 19.6072C7.99529 19.5569 8.08334 19.4839 8.15155 19.3939L8.16415 19.4013L9.70282 16.7362L11.2415 19.4011L11.2541 19.3939C11.3223 19.4839 11.4104 19.5569 11.5114 19.6072C11.6124 19.6575 11.7237 19.6839 11.8366 19.6841C12.0322 19.6841 12.2198 19.6064 12.3581 19.4681C12.4964 19.3298 12.5742 19.1422 12.5742 18.9466C12.5742 18.7761 12.5139 18.6209 12.4164 18.496L11.4227 16.775C11.9408 16.8048 12.5034 16.8212 13.0924 16.8212C13.4538 16.8212 13.805 16.8149 14.1424 16.8032Z" fill="#95CD41"/>
<path d="M17.8439 16.2573C18.0856 16.121 18.2874 15.617 18.3892 14.9333L14.9824 11.5265V16.2905L13.709 18.4959C13.6073 18.6242 13.5518 18.7829 13.5513 18.9466C13.5513 19.1422 13.629 19.3298 13.7673 19.4681C13.9056 19.6064 14.0932 19.6841 14.2888 19.6841C14.4017 19.6838 14.513 19.6575 14.614 19.6072C14.7151 19.5568 14.8031 19.4838 14.8713 19.3939L14.8839 19.4012L16.4226 16.7361L17.9615 19.401L17.9741 19.3939C18.0423 19.4838 18.1303 19.5568 18.2314 19.6072C18.3324 19.6575 18.4437 19.6838 18.5566 19.6841C18.7522 19.6841 18.9398 19.6064 19.0781 19.4681C19.2164 19.3298 19.2941 19.1422 19.2941 18.9466C19.2941 18.7761 19.2339 18.6209 19.1364 18.4959L17.8439 16.2573ZM21.6894 11.752C21.6894 11.5777 21.6035 11.4244 21.4729 11.3288L20.6526 10.5086V9.65493C20.6526 9.33405 20.468 9.05916 20.2009 8.92203L19.1396 8.30925L19.1366 8.31429C19.046 8.26035 18.9457 8.22448 18.8414 8.20866L18.326 7.31616L17.2555 9.17046L15.5349 10.8908L18.4579 13.8138C18.4555 13.5993 18.4436 13.385 18.4222 13.1716L18.9989 12.5949H21.0726V12.5893L21.5292 12.1327L21.5271 12.1306C21.5783 12.0818 21.6191 12.023 21.647 11.9579C21.6749 11.8929 21.6893 11.8228 21.6894 11.752Z" fill="#95CD41"/>
</svg>
