<svg width="27" height="27" viewBox="0 0 27 27" fill="none" xmlns="http://www.w3.org/2000/svg">
<circle cx="13.5" cy="13.5" r="13.5" fill="#FFFEFE"/>
<path d="M20.2495 14.2078C20.2996 14.0435 20.3424 13.8771 20.3778 13.709C20.38 13.6963 20.3807 13.6843 20.3837 13.6715C20.3987 13.598 20.4055 13.5223 20.4175 13.448C20.4362 13.3303 20.4587 13.2133 20.47 13.0948C20.5593 12.2108 20.4506 11.318 20.1518 10.4813C19.853 9.64451 19.3717 8.88479 18.7428 8.25725C18.1861 7.69941 17.5247 7.25701 16.7966 6.95545C16.0686 6.65389 15.2881 6.49912 14.5 6.5V12.5H8.88775L8.24425 11H5.5V12.5H7.25575L8.62675 15.6995C8.1461 15.8976 7.73499 16.2337 7.44543 16.6655C7.15586 17.0972 7.00085 17.6051 7 18.125C7 19.5725 8.1775 20.75 9.625 20.75C10.9443 20.75 12.028 19.7683 12.2118 18.5H13.7882C13.972 19.7683 15.0557 20.75 16.375 20.75C17.8225 20.75 19 19.5725 19 18.125C19 17.6525 18.8643 17.2153 18.6453 16.8313C18.6768 16.8005 18.712 16.7735 18.7435 16.742C19.0135 16.4713 19.2595 16.1728 19.4762 15.854C19.6923 15.5315 19.8783 15.1895 20.0282 14.8348C20.0402 14.807 20.0478 14.7778 20.059 14.75H20.0597L20.071 14.7185C20.137 14.5535 20.197 14.3878 20.2472 14.2175L20.2495 14.2078ZM9.625 19.25C9.00475 19.25 8.5 18.7453 8.5 18.125C8.5 17.5048 9.00475 17 9.625 17C10.2453 17 10.75 17.5048 10.75 18.125C10.75 18.7453 10.2453 19.25 9.625 19.25ZM16.375 19.25C15.7548 19.25 15.25 18.7453 15.25 18.125C15.25 17.5048 15.7548 17 16.375 17C16.9952 17 17.5 17.5048 17.5 18.125C17.5 18.7453 16.9952 19.25 16.375 19.25Z" fill="#1C2938"/>
</svg>
