<svg width="27" height="27" viewBox="0 0 27 27" fill="none" xmlns="http://www.w3.org/2000/svg">
<circle cx="13.5" cy="13.5" r="13.5" fill="#FFFEFE"/>
<path d="M20.1111 7.88867C21.153 7.88867 22 8.73424 22 9.77756V17.3331C22 18.375 21.153 19.222 20.1111 19.222H6.88889C5.84557 19.222 5 18.375 5 17.3331V9.77756C5 8.73424 5.84557 7.88867 6.88889 7.88867H20.1111ZM13.0278 11.6664C12.7681 11.6664 12.5556 11.8789 12.5556 12.1387C12.5556 12.3984 12.7681 12.6109 13.0278 12.6109H19.6389C19.8986 12.6109 20.1111 12.3984 20.1111 12.1387C20.1111 11.8789 19.8986 11.6664 19.6389 11.6664H13.0278ZM13.0278 15.4442H19.6389C19.8986 15.4442 20.1111 15.2317 20.1111 14.972C20.1111 14.7123 19.8986 14.4998 19.6389 14.4998H13.0278C12.7681 14.4998 12.5556 14.7123 12.5556 14.972C12.5556 15.2317 12.7681 15.4442 13.0278 15.4442ZM9.84323 10.722C9.84323 10.3944 9.5776 10.1288 9.22344 10.1288C8.9224 10.1288 8.65677 10.3944 8.65677 10.722V10.8991C8.49149 10.9345 8.30851 10.9847 8.1875 11.0496C7.74656 11.2503 7.36318 11.6222 7.26991 12.1623C7.21767 12.4633 7.24542 12.7555 7.37056 13.0182C7.49304 13.2779 7.68576 13.4609 7.88144 13.5937C8.22292 13.8269 8.67448 13.9626 9.01979 14.0659L9.08472 14.0836C9.49792 14.2105 9.77535 14.302 9.94948 14.4289C10.0233 14.4821 10.0498 14.5234 10.0587 14.55C10.0705 14.5736 10.0882 14.6267 10.0675 14.7447C10.0498 14.848 9.99375 14.9366 9.83142 15.0045C9.65139 15.0812 9.3592 15.1196 8.98142 15.0605C8.80434 15.031 8.48854 14.9248 8.20816 14.8303C8.14323 14.8067 8.0783 14.7861 8.01927 14.7654C7.71056 14.6621 7.37616 14.8303 7.27316 15.1402C7.17016 15.4501 7.3375 15.7836 7.64681 15.8604C7.68252 15.8987 7.72679 15.9135 7.77755 15.9312C7.98385 16.0109 8.37639 16.1349 8.65677 16.1998V16.3887C8.65677 16.7163 8.9224 16.9819 9.22344 16.9819C9.5776 16.9819 9.84323 16.7163 9.84323 16.3887V16.2263C9.99965 16.1968 10.1531 16.126 10.2948 16.0906C10.7611 15.8928 11.133 15.5092 11.2304 14.9484C11.2835 14.6414 11.2599 14.3463 11.1418 14.0777C11.0267 13.8121 10.8408 13.6173 10.6431 13.4757C10.2859 13.213 9.80781 13.0713 9.45069 12.9621L9.40052 12.9562C9.00799 12.8293 8.72465 12.7408 8.54462 12.6168C8.46788 12.5637 8.44427 12.5283 8.43837 12.5135C8.43247 12.5017 8.41476 12.4663 8.43247 12.3659C8.44427 12.3069 8.48854 12.2095 8.67448 12.1269C8.83976 12.0413 9.15851 11.9941 9.51858 12.0236C9.64844 12.0708 10.0469 12.1475 10.162 12.177C10.4748 12.2626 10.7995 12.0737 10.8821 11.7579C10.9677 11.4451 10.7788 11.1204 10.463 11.0378C10.3332 11.0024 10.038 10.9434 9.84323 10.9079V10.722Z" fill="#1F4690"/>
</svg>
