<svg width="27" height="27" viewBox="0 0 27 27" fill="none" xmlns="http://www.w3.org/2000/svg">
<circle cx="13.5" cy="13.5" r="13.5" fill="#FFFEFE"/>
<path d="M18.625 16.25H15.25V15.125H18.625V16.25ZM20.875 20.75H17.5V19.625H20.875V20.75ZM19.75 18.5H16.375V17.375H19.75V18.5Z" fill="#FF869E"/>
<path d="M13.5642 16.25C13.5602 15.7754 13.4336 15.3098 13.1967 14.8985C12.9597 14.4873 12.6205 14.1442 12.2119 13.9027L16.375 6.6875L15.4018 6.125L11.1398 13.5084C10.6167 13.3915 10.0727 13.4077 9.55748 13.5554C9.04227 13.7031 8.57232 13.9776 8.1906 14.3538C6.0846 16.385 6.24772 21.1336 6.2556 21.335C6.26141 21.4803 6.32323 21.6176 6.4281 21.7183C6.53296 21.819 6.67273 21.8751 6.8181 21.875H15.2505C15.3686 21.875 15.4837 21.8379 15.5794 21.7688C15.6752 21.6998 15.7468 21.6024 15.7842 21.4904C15.8215 21.3784 15.8226 21.2575 15.7874 21.1448C15.7522 21.0321 15.6825 20.9333 15.588 20.8625C13.5968 19.3685 13.5642 16.2804 13.5642 16.25ZM10.7106 14.5608C11.1608 14.5658 11.5918 14.7441 11.9138 15.0587C12.2359 15.3733 12.4243 15.8 12.4397 16.25C12.4397 16.2714 12.4408 16.367 12.4493 16.5138L9.13053 15.0378C9.34914 14.8575 9.60141 14.7225 9.87267 14.6407C10.1439 14.5588 10.4288 14.5316 10.7106 14.5608ZM12.6906 20.75C12.241 20.2922 11.9544 19.6992 11.875 19.0625H10.75C10.7903 19.6612 10.9773 20.2407 11.2945 20.75H10.044C9.81271 20.02 9.67196 19.2643 9.62497 18.5H8.49997C8.53625 19.262 8.66179 20.0172 8.87403 20.75H7.37497C7.39241 19.7172 7.5381 17.4358 8.38916 15.9389L12.6265 17.8233C12.8301 18.8804 13.2641 19.8797 13.8977 20.75H12.6906Z" fill="#FF869E"/>
</svg>
