<svg width="27" height="27" viewBox="0 0 27 27" fill="none" xmlns="http://www.w3.org/2000/svg">
<circle cx="13.5" cy="13.5" r="13.5" fill="#FFFEFE"/>
<g clip-path="url(#clip0_275_30)">
<path d="M15.3529 6.9187C15.3529 6.9187 14.6321 7.17183 13.5 7.17183C12.3679 7.17183 11.6471 6.9187 11.6471 6.9187C11.5332 6.9187 11.4201 6.93796 11.3127 6.97565L6.41248 8.69058L6.93866 11.475L8.48525 11.6496C8.67465 11.671 8.84907 11.7629 8.97386 11.907C9.09865 12.0511 9.1647 12.2368 9.15888 12.4273L8.94373 20.0812H18.0562L17.8411 12.4273C17.8353 12.2368 17.9013 12.0511 18.0261 11.907C18.1509 11.7629 18.3253 11.671 18.5147 11.6496L20.0613 11.475L20.5875 8.69058L15.6873 6.97565C15.5798 6.93796 15.4667 6.9187 15.3529 6.9187V6.9187Z" stroke="#FED06E" stroke-width="1.6875" stroke-linecap="round" stroke-linejoin="round"/>
<path d="M15.9461 7.06616C15.8026 7.60537 15.485 8.08206 15.0426 8.42212C14.6003 8.76217 14.0579 8.94653 13.5 8.94653C12.942 8.94653 12.3997 8.76217 11.9573 8.42212C11.5149 8.08206 11.1973 7.60537 11.0538 7.06616" stroke="#FED06E" stroke-width="1.6875" stroke-linecap="round" stroke-linejoin="round"/>
</g>
<defs>
<clipPath id="clip0_275_30">
<rect width="16.2" height="16.2" fill="white" transform="translate(5.40002 5.3999)"/>
</clipPath>
</defs>
</svg>
