<svg width="30" height="30" viewBox="0 0 30 30" fill="none" xmlns="http://www.w3.org/2000/svg">
<circle cx="15" cy="15" r="15" fill="#FED06E"/>
<path d="M17.0588 7.6875C17.0588 7.6875 16.2579 7.96875 15 7.96875C13.7421 7.96875 12.9413 7.6875 12.9413 7.6875C12.8147 7.6875 12.6891 7.7089 12.5696 7.75078L7.125 9.65625L7.70965 12.75L9.42809 12.9441C9.63853 12.9679 9.83232 13.07 9.97098 13.2301C10.1096 13.3901 10.183 13.5965 10.1766 13.8082L9.9375 22.3125H20.0625L19.8234 13.8082C19.817 13.5965 19.8904 13.3901 20.029 13.2301C20.1677 13.07 20.3615 12.9679 20.5719 12.9441L22.2904 12.75L22.875 9.65625L17.4304 7.75078C17.3109 7.7089 17.1853 7.6875 17.0588 7.6875V7.6875Z" stroke="#FFFEFE" stroke-width="1.6875" stroke-linecap="round" stroke-linejoin="round"/>
<path d="M17.7179 7.85132C17.5585 8.45044 17.2056 8.9801 16.7141 9.35794C16.2225 9.73578 15.6199 9.94062 15 9.94062C14.38 9.94062 13.7774 9.73578 13.2859 9.35794C12.7944 8.9801 12.4415 8.45044 12.282 7.85132" stroke="#FFFEFE" stroke-width="1.6875" stroke-linecap="round" stroke-linejoin="round"/>
</svg>
