<svg width="27" height="27" viewBox="0 0 27 27" fill="none" xmlns="http://www.w3.org/2000/svg">
<path d="M22.95 1.3501H20.25C19.8919 1.3501 19.5485 1.49233 19.2954 1.7455C19.0422 1.99868 18.9 2.34206 18.9 2.7001V25.6393H24.3V2.7001C24.3 2.34206 24.1577 1.99868 23.9045 1.7455C23.6514 1.49233 23.308 1.3501 22.95 1.3501ZM14.85 9.4501H12.15C11.7919 9.4501 11.4485 9.59233 11.1954 9.8455C10.9422 10.0987 10.8 10.4421 10.8 10.8001V25.6393H16.2V10.8001C16.2 10.4421 16.0577 10.0987 15.8045 9.8455C15.5514 9.59233 15.208 9.4501 14.85 9.4501ZM6.74995 17.5501H4.04995C3.69191 17.5501 3.34853 17.6923 3.09536 17.9455C2.84218 18.1987 2.69995 18.5421 2.69995 18.9001V25.6393H8.09995V18.9001C8.09995 18.5421 7.95772 18.1987 7.70455 17.9455C7.45137 17.6923 7.10799 17.5501 6.74995 17.5501Z" fill="#1C2938"/>
</svg>
