<svg width="48" height="48" viewBox="0 0 48 48" fill="none" xmlns="http://www.w3.org/2000/svg">
<circle cx="24" cy="24" r="24" fill="#FEE500"/>
<path d="M24 12C31.732 12 38 16.8853 38 22.9133C38 28.94 31.732 33.8253 24 33.8253C23.2301 33.8257 22.461 33.7768 21.6973 33.6787L15.82 37.5227C15.152 37.876 14.916 37.8373 15.1907 36.972L16.38 32.068C12.54 30.1213 10 26.748 10 22.9133C10 16.8867 16.268 12 24 12ZM31.876 22.7467L33.836 20.848C33.9491 20.7305 34.0122 20.5738 34.012 20.4107C34.0118 20.2477 33.9483 20.0911 33.8349 19.9739C33.7216 19.8567 33.5671 19.7881 33.4042 19.7825C33.2412 19.7769 33.0825 19.8348 32.9613 19.944L30.3907 22.432V20.376C30.3907 20.2091 30.3244 20.049 30.2063 19.931C30.0883 19.813 29.9282 19.7467 29.7613 19.7467C29.5944 19.7467 29.4344 19.813 29.3163 19.931C29.1983 20.049 29.132 20.2091 29.132 20.376V23.7853C29.1084 23.8826 29.1084 23.9841 29.132 24.0813V26C29.132 26.1669 29.1983 26.327 29.3163 26.445C29.4344 26.563 29.5944 26.6293 29.7613 26.6293C29.9282 26.6293 30.0883 26.563 30.2063 26.445C30.3244 26.327 30.3907 26.1669 30.3907 26V24.1827L30.96 23.632L32.864 26.3427C32.9115 26.4103 32.9719 26.468 33.0418 26.5123C33.1116 26.5567 33.1894 26.5868 33.2709 26.601C33.3524 26.6153 33.4359 26.6133 33.5166 26.5953C33.5973 26.5773 33.6737 26.5435 33.7413 26.496C33.809 26.4485 33.8667 26.3881 33.911 26.3182C33.9553 26.2484 33.9855 26.1706 33.9997 26.0891C34.0139 26.0076 34.012 25.9241 33.994 25.8434C33.9759 25.7627 33.9422 25.6863 33.8947 25.6187L31.876 22.7453V22.7467ZM27.932 25.312H25.9853V20.396C25.9779 20.2343 25.9084 20.0816 25.7913 19.9698C25.6742 19.858 25.5186 19.7956 25.3567 19.7956C25.1948 19.7956 25.0391 19.858 24.922 19.9698C24.8049 20.0816 24.7354 20.2343 24.728 20.396V25.9413C24.728 26.288 25.008 26.5707 25.356 26.5707H27.932C28.0989 26.5707 28.259 26.5044 28.377 26.3863C28.495 26.2683 28.5613 26.1082 28.5613 25.9413C28.5613 25.7744 28.495 25.6144 28.377 25.4963C28.259 25.3783 28.0989 25.312 27.932 25.312ZM20.1227 23.856L21.0507 21.58L21.9013 23.856H20.1227ZM23.4867 24.5067L23.4893 24.4853C23.489 24.3268 23.4285 24.1743 23.32 24.0587L21.9253 20.3253C21.8669 20.1474 21.7555 19.9916 21.6061 19.8787C21.4567 19.7657 21.2764 19.7011 21.0893 19.6933C20.9009 19.6925 20.7166 19.7491 20.5611 19.8556C20.4055 19.962 20.2861 20.1133 20.2187 20.2893L18.004 25.7227C17.9727 25.7992 17.9569 25.8811 17.9573 25.9638C17.9577 26.0464 17.9744 26.1282 18.0064 26.2044C18.0384 26.2806 18.0851 26.3497 18.1438 26.4079C18.2025 26.4661 18.2722 26.5121 18.3487 26.5433C18.4252 26.5746 18.5071 26.5905 18.5898 26.5901C18.6724 26.5897 18.7542 26.573 18.8304 26.541C18.9066 26.509 18.9757 26.4623 19.0339 26.4035C19.0921 26.3448 19.1381 26.2752 19.1693 26.1987L19.6093 25.1147H22.3693L22.768 26.1813C22.7951 26.2611 22.8379 26.3345 22.894 26.3974C22.95 26.4603 23.018 26.5113 23.0941 26.5474C23.1702 26.5835 23.2528 26.6039 23.3369 26.6075C23.421 26.6111 23.505 26.5978 23.5839 26.5684C23.6628 26.5389 23.735 26.4939 23.7962 26.4361C23.8574 26.3782 23.9064 26.3087 23.9402 26.2316C23.974 26.1544 23.992 26.0713 23.9931 25.9871C23.9942 25.9029 23.9784 25.8193 23.9467 25.7413L23.4867 24.5067ZM19.0573 20.4027C19.0573 20.236 18.9912 20.0761 18.8735 19.9581C18.7557 19.8401 18.596 19.7737 18.4293 19.7733H14.1027C13.9358 19.7733 13.7757 19.8396 13.6577 19.9577C13.5396 20.0757 13.4733 20.2358 13.4733 20.4027C13.4733 20.5696 13.5396 20.7297 13.6577 20.8477C13.7757 20.9657 13.9358 21.032 14.1027 21.032H15.6493V26.0133C15.6493 26.1802 15.7156 26.3403 15.8337 26.4583C15.9517 26.5764 16.1118 26.6427 16.2787 26.6427C16.4456 26.6427 16.6056 26.5764 16.7237 26.4583C16.8417 26.3403 16.908 26.1802 16.908 26.0133V21.032H18.428C18.5949 21.032 18.755 20.9657 18.873 20.8477C18.991 20.7297 19.0573 20.5696 19.0573 20.4027Z" fill="#181600"/>
</svg>
