<svg width="27" height="27" viewBox="0 0 27 27" fill="none" xmlns="http://www.w3.org/2000/svg">
<circle cx="13.5" cy="13.5" r="13.5" fill="#FFFEFE"/>
<path d="M8.5 6.6875C8.5 6.53832 8.44074 6.39524 8.33525 6.28975C8.22976 6.18426 8.08668 6.125 7.9375 6.125C7.78832 6.125 7.64524 6.18426 7.53975 6.28975C7.43426 6.39524 7.375 6.53832 7.375 6.6875V10.0625C7.37487 10.7109 7.59875 11.3394 8.00877 11.8416C8.41878 12.3439 8.98973 12.6891 9.625 12.8187V21.3125C9.625 21.4617 9.68426 21.6048 9.78975 21.7102C9.89524 21.8157 10.0383 21.875 10.1875 21.875C10.3367 21.875 10.4798 21.8157 10.5852 21.7102C10.6907 21.6048 10.75 21.4617 10.75 21.3125V12.8187C11.3853 12.6891 11.9562 12.3439 12.3662 11.8416C12.7762 11.3394 13.0001 10.7109 13 10.0625V6.6875C13 6.53832 12.9407 6.39524 12.8352 6.28975C12.7298 6.18426 12.5867 6.125 12.4375 6.125C12.2883 6.125 12.1452 6.18426 12.0398 6.28975C11.9343 6.39524 11.875 6.53832 11.875 6.6875V10.0625C11.8752 10.4116 11.7671 10.7522 11.5656 11.0373C11.3641 11.3224 11.0792 11.538 10.75 11.6544V6.6875C10.75 6.53832 10.6907 6.39524 10.5852 6.28975C10.4798 6.18426 10.3367 6.125 10.1875 6.125C10.0383 6.125 9.89524 6.18426 9.78975 6.28975C9.68426 6.39524 9.625 6.53832 9.625 6.6875V11.6544C9.29585 11.538 9.01089 11.3224 8.80941 11.0373C8.60792 10.7522 8.49982 10.4116 8.5 10.0625V6.6875ZM16.375 21.3125V14H14.6875C14.5383 14 14.3952 13.9407 14.2898 13.8352C14.1843 13.7298 14.125 13.5867 14.125 13.4375V8.9375C14.125 8.19163 14.4917 7.49413 14.9924 6.99238C15.4941 6.49175 16.1916 6.125 16.9375 6.125C17.0867 6.125 17.2298 6.18426 17.3352 6.28975C17.4407 6.39524 17.5 6.53832 17.5 6.6875V21.3125C17.5 21.4617 17.4407 21.6048 17.3352 21.7102C17.2298 21.8157 17.0867 21.875 16.9375 21.875C16.7883 21.875 16.6452 21.8157 16.5398 21.7102C16.4343 21.6048 16.375 21.4617 16.375 21.3125Z" fill="#CA82FF"/>
</svg>
