<svg width="27" height="29" viewBox="0 0 27 29" fill="none" xmlns="http://www.w3.org/2000/svg">
<g filter="url(#filter0_d_307_315)">
<path d="M4 10H15V12H4V10ZM4 8H15V6H4V8ZM4 16H11V14H4V16ZM19.01 12.87L19.72 12.16C19.8125 12.0673 19.9224 11.9937 20.0434 11.9436C20.1643 11.8934 20.294 11.8676 20.425 11.8676C20.556 11.8676 20.6856 11.8934 20.8066 11.9436C20.9276 11.9937 21.0375 12.0673 21.13 12.16L21.84 12.87C22.23 13.26 22.23 13.89 21.84 14.28L21.13 14.99L19.01 12.87ZM18.3 13.58L13 18.88V21H15.12L20.42 15.7L18.3 13.58Z" fill="#1C2938"/>
</g>
<defs>
<filter id="filter0_d_307_315" x="-3" y="0" width="32" height="32" filterUnits="userSpaceOnUse" color-interpolation-filters="sRGB">
<feFlood flood-opacity="0" result="BackgroundImageFix"/>
<feColorMatrix in="SourceAlpha" type="matrix" values="0 0 0 0 0 0 0 0 0 0 0 0 0 0 0 0 0 0 127 0" result="hardAlpha"/>
<feOffset dy="4"/>
<feGaussianBlur stdDeviation="2"/>
<feComposite in2="hardAlpha" operator="out"/>
<feColorMatrix type="matrix" values="0 0 0 0 0 0 0 0 0 0 0 0 0 0 0 0 0 0 0.25 0"/>
<feBlend mode="normal" in2="BackgroundImageFix" result="effect1_dropShadow_307_315"/>
<feBlend mode="normal" in="SourceGraphic" in2="effect1_dropShadow_307_315" result="shape"/>
</filter>
</defs>
</svg>
