<svg width="20" height="22" viewBox="0 0 20 22" fill="none" xmlns="http://www.w3.org/2000/svg">
<path d="M19.675 13.6649L18.1398 12.3524C18.2125 11.9071 18.25 11.4524 18.25 10.9978C18.25 10.5431 18.2125 10.0884 18.1398 9.64307L19.675 8.33057C19.7908 8.23144 19.8737 8.09942 19.9126 7.95205C19.9515 7.80468 19.9447 7.64895 19.893 7.50557L19.8719 7.44463C19.4492 6.26344 18.8164 5.16846 18.0039 4.2126L17.9617 4.16338C17.8631 4.04748 17.7318 3.96417 17.5849 3.92443C17.4381 3.88468 17.2826 3.89036 17.1391 3.94072L15.2336 4.61807C14.5305 4.0415 13.7453 3.58682 12.8969 3.26807L12.5289 1.27588C12.5011 1.12598 12.4284 0.988072 12.3204 0.880483C12.2124 0.772894 12.0742 0.700715 11.9242 0.673535L11.8609 0.661816C10.6398 0.441504 9.35546 0.441504 8.13437 0.661816L8.07109 0.673535C7.92108 0.700715 7.78289 0.772894 7.67488 0.880483C7.56688 0.988072 7.49416 1.12598 7.4664 1.27588L7.09609 3.27744C6.25442 3.59626 5.47062 4.0507 4.77577 4.62275L2.85624 3.94072C2.71272 3.88996 2.55716 3.88408 2.41022 3.92385C2.26327 3.96362 2.13191 4.04716 2.03359 4.16338L1.9914 4.2126C1.17987 5.16914 0.547124 6.26393 0.12343 7.44463L0.102336 7.50557C-0.00313249 7.79853 0.0835863 8.12666 0.320305 8.33057L1.87421 9.65713C1.80156 10.0978 1.7664 10.5478 1.7664 10.9954C1.7664 11.4454 1.80156 11.8954 1.87421 12.3337L0.320305 13.6603C0.204514 13.7594 0.12164 13.8914 0.082705 14.0388C0.0437695 14.1861 0.0506167 14.3419 0.102336 14.4853L0.12343 14.5462C0.547649 15.7274 1.17577 16.8173 1.9914 17.7782L2.03359 17.8274C2.13215 17.9433 2.26352 18.0266 2.41037 18.0664C2.55723 18.1061 2.71268 18.1005 2.85624 18.0501L4.77577 17.3681C5.47421 17.9423 6.25468 18.397 7.09609 18.7134L7.4664 20.7149C7.49416 20.8648 7.56688 21.0027 7.67488 21.1103C7.78289 21.2179 7.92108 21.2901 8.07109 21.3173L8.13437 21.329C9.36668 21.5505 10.6286 21.5505 11.8609 21.329L11.9242 21.3173C12.0742 21.2901 12.2124 21.2179 12.3204 21.1103C12.4284 21.0027 12.5011 20.8648 12.5289 20.7149L12.8969 18.7228C13.745 18.4048 14.5345 17.9487 15.2336 17.3728L17.1391 18.0501C17.2826 18.1009 17.4381 18.1067 17.5851 18.067C17.732 18.0272 17.8634 17.9437 17.9617 17.8274L18.0039 17.7782C18.8195 16.8149 19.4476 15.7274 19.8719 14.5462L19.893 14.4853C19.9984 14.197 19.9117 13.8688 19.675 13.6649ZM16.4758 9.91963C16.5344 10.2735 16.5648 10.6368 16.5648 11.0001C16.5648 11.3634 16.5344 11.7267 16.4758 12.0806L16.3211 13.0204L18.0719 14.5181C17.8065 15.1295 17.4714 15.7083 17.0734 16.2431L14.8984 15.472L14.1625 16.0767C13.6023 16.536 12.9789 16.897 12.3039 17.1501L11.4109 17.4853L10.9914 19.7587C10.3295 19.8337 9.66116 19.8337 8.99921 19.7587L8.57968 17.4806L7.69374 17.1407C7.02577 16.8876 6.40468 16.5267 5.84921 16.0696L5.11327 15.4626L2.92421 16.2407C2.52577 15.704 2.19296 15.1251 1.92577 14.5157L3.69531 13.004L3.54296 12.0665C3.48671 11.7173 3.45624 11.3563 3.45624 11.0001C3.45624 10.6415 3.48437 10.2829 3.54296 9.93369L3.69531 8.99619L1.92577 7.48447C2.19062 6.87275 2.52577 6.29619 2.92421 5.75947L5.11327 6.5376L5.84921 5.93057C6.40468 5.47354 7.02577 5.1126 7.69374 4.85947L8.58202 4.52432L9.00155 2.24619C9.66015 2.17119 10.3328 2.17119 10.9937 2.24619L11.4133 4.51963L12.3062 4.85478C12.9789 5.10791 13.6047 5.46885 14.1648 5.92822L14.9008 6.53291L17.0758 5.76182C17.4742 6.29853 17.807 6.87744 18.0742 7.48682L16.3234 8.98447L16.4758 9.91963ZM9.99999 6.64072C7.72187 6.64072 5.87499 8.4876 5.87499 10.7657C5.87499 13.0438 7.72187 14.8907 9.99999 14.8907C12.2781 14.8907 14.125 13.0438 14.125 10.7657C14.125 8.4876 12.2781 6.64072 9.99999 6.64072ZM11.8562 12.622C11.6128 12.8661 11.3234 13.0598 11.0049 13.1917C10.6863 13.3236 10.3448 13.3913 9.99999 13.3907C9.29921 13.3907 8.64062 13.1165 8.14374 12.622C7.89958 12.3785 7.70596 12.0892 7.57403 11.7706C7.4421 11.452 7.37446 11.1105 7.37499 10.7657C7.37499 10.0649 7.64921 9.40635 8.14374 8.90947C8.64062 8.4126 9.29921 8.14072 9.99999 8.14072C10.7008 8.14072 11.3594 8.4126 11.8562 8.90947C12.1004 9.15294 12.294 9.44227 12.426 9.76084C12.5579 10.0794 12.6255 10.4209 12.625 10.7657C12.625 11.4665 12.3508 12.1251 11.8562 12.622Z" fill="#1C2938"/>
</svg>
