<svg width="24" height="24" viewBox="0 0 24 24" fill="none" xmlns="http://www.w3.org/2000/svg">
<path d="M20.9242 5.61708C20.8739 5.49585 20.8001 5.38574 20.7072 5.29308L17.7072 2.29308C17.6149 2.19757 17.5046 2.12139 17.3826 2.06898C17.2606 2.01657 17.1293 1.98898 16.9966 1.98783C16.8638 1.98668 16.7321 2.01198 16.6092 2.06226C16.4863 2.11254 16.3747 2.18679 16.2808 2.28069C16.1869 2.37458 16.1126 2.48623 16.0623 2.60913C16.0121 2.73202 15.9868 2.8637 15.9879 2.99648C15.9891 3.12926 16.0167 3.26048 16.0691 3.38249C16.1215 3.50449 16.1977 3.61483 16.2932 3.70708L17.5862 5.00008H8.00017C6.67409 5.00008 5.40232 5.52687 4.46464 6.46455C3.52695 7.40223 3.00017 8.674 3.00017 10.0001V12.0001C3.00017 12.2653 3.10553 12.5197 3.29306 12.7072C3.4806 12.8947 3.73495 13.0001 4.00017 13.0001C4.26539 13.0001 4.51974 12.8947 4.70728 12.7072C4.89481 12.5197 5.00017 12.2653 5.00017 12.0001V10.0001C5.00017 9.20443 5.31624 8.44137 5.87885 7.87876C6.44146 7.31615 7.20452 7.00008 8.00017 7.00008H17.5862L16.2932 8.29308C16.111 8.48168 16.0102 8.73429 16.0125 8.99648C16.0148 9.25868 16.1199 9.50949 16.3054 9.6949C16.4908 9.88031 16.7416 9.98548 17.0038 9.98775C17.266 9.99003 17.5186 9.88924 17.7072 9.70708L20.7072 6.70708C20.8002 6.61434 20.8739 6.50414 20.9242 6.38281C20.9745 6.26149 21.0003 6.13142 21.0002 6.00008L20.9242 5.61708ZM20.9242 5.61708C20.9741 5.73755 21 5.86666 21.0002 5.99708L20.9242 5.61708ZM3.07617 17.6171C3.00006 17.7998 2.98006 18.001 3.0187 18.1951C3.05735 18.3892 3.15289 18.5675 3.29317 18.7071L6.29317 21.7071C6.48177 21.8892 6.73437 21.99 6.99657 21.9878C7.25877 21.9855 7.50958 21.8803 7.69499 21.6949C7.8804 21.5095 7.98556 21.2587 7.98784 20.9965C7.99012 20.7343 7.88933 20.4817 7.70717 20.2931L6.41417 19.0001H16.0002C17.3263 19.0001 18.598 18.4733 19.5357 17.5356C20.4734 16.5979 21.0002 15.3262 21.0002 14.0001V12.0001C21.0002 11.7349 20.8948 11.4805 20.7073 11.293C20.5197 11.1054 20.2654 11.0001 20.0002 11.0001C19.735 11.0001 19.4806 11.1054 19.2931 11.293C19.1055 11.4805 19.0002 11.7349 19.0002 12.0001V14.0001C19.0002 14.7957 18.6841 15.5588 18.1215 16.1214C17.5589 16.684 16.7958 17.0001 16.0002 17.0001H6.41417L7.70717 15.7071C7.80268 15.6148 7.87886 15.5045 7.93127 15.3825C7.98368 15.2605 8.01127 15.1293 8.01242 14.9965C8.01357 14.8637 7.98827 14.732 7.93799 14.6091C7.88771 14.4862 7.81346 14.3746 7.71956 14.2807C7.62567 14.1868 7.51402 14.1125 7.39112 14.0623C7.26823 14.012 7.13655 13.9867 7.00377 13.9878C6.87099 13.989 6.73977 14.0166 6.61776 14.069C6.49576 14.1214 6.38542 14.1976 6.29317 14.2931L3.29317 17.2931L3.07617 17.6171ZM3.07617 17.6171C3.12611 17.4967 3.19915 17.3873 3.29117 17.2951L3.07617 17.6171Z" fill="#1C2938"/>
</svg>
