<svg width="26" height="30" viewBox="0 0 26 30" fill="none" xmlns="http://www.w3.org/2000/svg">
<g filter="url(#filter0_d_307_296)">
<path d="M21.924 5.61708C21.8737 5.49585 21.7999 5.38574 21.707 5.29308L18.707 2.29308C18.6147 2.19757 18.5044 2.12139 18.3824 2.06898C18.2604 2.01657 18.1292 1.98898 17.9964 1.98783C17.8636 1.98668 17.7319 2.01198 17.609 2.06226C17.4861 2.11254 17.3745 2.18679 17.2806 2.28069C17.1867 2.37458 17.1124 2.48623 17.0622 2.60913C17.0119 2.73202 16.9866 2.8637 16.9877 2.99648C16.9889 3.12926 17.0165 3.26048 17.0689 3.38249C17.1213 3.50449 17.1975 3.61483 17.293 3.70708L18.586 5.00008H8.99999C7.6739 5.00008 6.40213 5.52687 5.46445 6.46455C4.52677 7.40223 3.99999 8.674 3.99999 10.0001V12.0001C3.99999 12.2653 4.10534 12.5197 4.29288 12.7072C4.48042 12.8947 4.73477 13.0001 4.99999 13.0001C5.2652 13.0001 5.51956 12.8947 5.70709 12.7072C5.89463 12.5197 5.99999 12.2653 5.99999 12.0001V10.0001C5.99999 9.20443 6.31606 8.44137 6.87867 7.87876C7.44127 7.31615 8.20434 7.00008 8.99999 7.00008H18.586L17.293 8.29308C17.1108 8.48168 17.01 8.73429 17.0123 8.99648C17.0146 9.25868 17.1198 9.50949 17.3052 9.6949C17.4906 9.88031 17.7414 9.98548 18.0036 9.98775C18.2658 9.99003 18.5184 9.88924 18.707 9.70708L21.707 6.70708C21.8 6.61434 21.8737 6.50414 21.924 6.38281C21.9743 6.26149 22.0001 6.13142 22 6.00008L21.924 5.61708ZM21.924 5.61708C21.974 5.73755 21.9998 5.86666 22 5.99708L21.924 5.61708ZM4.07599 17.6171C3.99988 17.7998 3.97987 18.001 4.01852 18.1951C4.05716 18.3892 4.15271 18.5675 4.29299 18.7071L7.29299 21.7071C7.48159 21.8892 7.73419 21.99 7.99639 21.9878C8.25858 21.9855 8.5094 21.8803 8.6948 21.6949C8.88021 21.5095 8.98538 21.2587 8.98766 20.9965C8.98994 20.7343 8.88914 20.4817 8.70699 20.2931L7.41399 19.0001H17C18.3261 19.0001 19.5978 18.4733 20.5355 17.5356C21.4732 16.5979 22 15.3262 22 14.0001V12.0001C22 11.7349 21.8946 11.4805 21.7071 11.293C21.5196 11.1054 21.2652 11.0001 21 11.0001C20.7348 11.0001 20.4804 11.1054 20.2929 11.293C20.1053 11.4805 20 11.7349 20 12.0001V14.0001C20 14.7957 19.6839 15.5588 19.1213 16.1214C18.5587 16.684 17.7956 17.0001 17 17.0001H7.41399L8.70699 15.7071C8.8025 15.6148 8.87868 15.5045 8.93109 15.3825C8.9835 15.2605 9.01108 15.1293 9.01224 14.9965C9.01339 14.8637 8.98809 14.732 8.93781 14.6091C8.88753 14.4862 8.81327 14.3746 8.71938 14.2807C8.62549 14.1868 8.51384 14.1125 8.39094 14.0623C8.26804 14.012 8.13636 13.9867 8.00358 13.9878C7.87081 13.989 7.73959 14.0166 7.61758 14.069C7.49558 14.1214 7.38523 14.1976 7.29299 14.2931L4.29299 17.2931L4.07599 17.6171ZM4.07599 17.6171C4.12592 17.4967 4.19897 17.3873 4.29099 17.2951L4.07599 17.6171Z" fill="#1C2938"/>
</g>
<defs>
<filter id="filter0_d_307_296" x="-3" y="0" width="32" height="32" filterUnits="userSpaceOnUse" color-interpolation-filters="sRGB">
<feFlood flood-opacity="0" result="BackgroundImageFix"/>
<feColorMatrix in="SourceAlpha" type="matrix" values="0 0 0 0 0 0 0 0 0 0 0 0 0 0 0 0 0 0 127 0" result="hardAlpha"/>
<feOffset dy="4"/>
<feGaussianBlur stdDeviation="2"/>
<feComposite in2="hardAlpha" operator="out"/>
<feColorMatrix type="matrix" values="0 0 0 0 0 0 0 0 0 0 0 0 0 0 0 0 0 0 0.25 0"/>
<feBlend mode="normal" in2="BackgroundImageFix" result="effect1_dropShadow_307_296"/>
<feBlend mode="normal" in="SourceGraphic" in2="effect1_dropShadow_307_296" result="shape"/>
</filter>
</defs>
</svg>
